HIERARCHY
ROOT Hips
{
  OFFSET 40.9192 92.6879 18.85
  CHANNELS 6 Xposition Yposition Zposition Zrotation Xrotation Yrotation
  JOINT LeftUpLeg
  {
    OFFSET 8.64259 1.95398 -2.38835
    CHANNELS 3 Zrotation Xrotation Yrotation
    JOINT LeftLeg
    {
      OFFSET 43.7702 0 0
      CHANNELS 3 Zrotation Xrotation Yrotation
      JOINT LeftFoot
      {
        OFFSET 40.6238 0 0
        CHANNELS 3 Zrotation Xrotation Yrotation
        JOINT LeftToeBase
        {
          OFFSET 12.7242 0 0
          CHANNELS 3 Zrotation Xrotation Yrotation
          End Site
          {
            OFFSET 0 0 0
          }
        }
      }
    }
  }
  JOINT RightUpLeg
  {
    OFFSET -8.2249 1.95398 -2.59336
    CHANNELS 3 Zrotation Xrotation Yrotation
    JOINT RightLeg
    {
      OFFSET 43.5653 0 0
      CHANNELS 3 Zrotation Xrotation Yrotation
      JOINT RightFoot
      {
        OFFSET 40.6238 0 0
        CHANNELS 3 Zrotation Xrotation Yrotation
        JOINT RightToeBase
        {
          OFFSET 12.7242 0 0
          CHANNELS 3 Zrotation Xrotation Yrotation
          End Site
          {
            OFFSET 0 0 0
          }
        }
      }
    }
  }
  JOINT Spine
  {
    OFFSET 0.165834 0.87714 6.61349
    CHANNELS 3 Zrotation Xrotation Yrotation
    JOINT Spine1
    {
      OFFSET 7.38963 1.71661e-005 0
      CHANNELS 3 Zrotation Xrotation Yrotation
      JOINT Spine2
      {
        OFFSET 11.9445 1.14441e-005 0
        CHANNELS 3 Zrotation Xrotation Yrotation
        JOINT Spine3
        {
          OFFSET 14.7254 4.19617e-005 0
          CHANNELS 3 Zrotation Xrotation Yrotation
          JOINT Spine4
          {
            OFFSET 10.9679 0 0
            CHANNELS 3 Zrotation Xrotation Yrotation
            JOINT RightShoulder
            {
              OFFSET 2.46616 -1.6653 3.69651
              CHANNELS 3 Zrotation Xrotation Yrotation
              JOINT RightArm
              {
                OFFSET 13.0012 0 0
                CHANNELS 3 Zrotation Xrotation Yrotation
                JOINT RightForeArm
                {
                  OFFSET 28.7848 1.52588e-005 0
                  CHANNELS 3 Zrotation Xrotation Yrotation
                  JOINT RightHand
                  {
                    OFFSET 26.5688 1.52588e-005 0
                    CHANNELS 3 Zrotation Xrotation Yrotation
                    End Site
                    {
                      OFFSET 0 0 0
                    }
                  }
                }
              }
            }
            JOINT LeftShoulder
            {
              OFFSET 2.38034 -1.29275 -3.7523
              CHANNELS 3 Zrotation Xrotation Yrotation
              JOINT LeftArm
              {
                OFFSET 16.3182 6.10351e-005 0
                CHANNELS 3 Zrotation Xrotation Yrotation
                JOINT LeftForeArm
                {
                  OFFSET 27.0901 0 0
                  CHANNELS 3 Zrotation Xrotation Yrotation
                  JOINT LeftHand
                  {
                    OFFSET 24.5451 1.52588e-005 0
                    CHANNELS 3 Zrotation Xrotation Yrotation
                    End Site
                    {
                      OFFSET 0 0 0
                    }
                  }
                }
              }
            }
            JOINT Neck
            {
              OFFSET 5.0226 -0.0266342 0
              CHANNELS 3 Zrotation Xrotation Yrotation
              JOINT Head
              {
                OFFSET 6.69363 2.86102e-005 0
                CHANNELS 3 Zrotation Xrotation Yrotation
                End Site
                {
                  OFFSET 0 0 0
                }
              }
            }
          }
        }
      }
    }
  }
}
MOTION
Frames:	12
Frame Time:	0.0416667
-53.4099 97.3807 43.2026 -109.98 -83.8827 -108.788 -169.563 3.16977 93.6207 -10.7945 7.47246 -3.03674 63.8516 2.02575 2.62641 26.1088 -2.02558 -0.673573 173.084 1.42911 89.2542 -9.43816 -6.90065 -0.1078 63.4933 -2.37906 -1.33958 28.4313 0.184422 -2.99229 0.168212 7.13306 -90.0134 12.5973 0.327776 -0.0651164 0.926402 0.324592 -0.0794899 -21.609 0.332191 0.0283639 -1.59639 0.332192 0.0283673 92.3978 -47.3163 -97.6613 30.1417 -8.40368 0.778372 -5.84372 -26.5544 -40.0846 -6.80903 -0.91802 5.0535 -98.5045 -49.2793 65.9227 -23.293 15.3368 2.12752 1.81638 12.163 -29.3342 10.2364 0.790742 3.59426 9.50756 2.40929 0.172431 -8.08251 2.27405 2.2173 
-53.3976 97.3369 43.2148 -109.982 -83.9959 -108.81 -169.311 3.91783 93.7512 -11.9268 7.47385 -3.36284 63.5837 2.01349 3.45567 27.7775 -0.397608 -3.51895 173.142 1.47303 89.2281 -9.55616 -7.22209 -0.228058 64.2311 -2.61641 -1.46522 27.1677 0.160276 -3.09773 0.16472 7.13226 -90.0164 12.61 0.319373 -0.0701351 0.939101 0.315967 -0.0841254 -21.5964 0.325677 0.0301306 -1.58373 0.325681 0.0301349 92.414 -47.2361 -97.6512 30.1151 -8.34368 0.648649 -5.05433 -26.84 -39.3051 -7.12743 -0.921651 4.84272 -98.4552 -49.299 66.0021 -23.3046 15.3855 1.95689 1.94465 12.4933 -29.2809 9.76041 0.799712 3.99091 10.5201 2.75507 0.0817447 -8.5318 2.61507 2.3635 
-53.4166 97.3513 43.21 -111.462 -84.0585 -110.312 -169.373 3.69619 93.7187 -11.7095 7.65962 -3.28571 63.4485 2.02914 3.57908 27.6603 -0.498972 -3.39816 173.024 1.2884 89.1984 -9.39183 -6.4811 -0.0868241 64.856 -2.85021 -1.59273 25.617 0.0130417 -1.83306 0.140058 7.13882 -90.0072 12.5963 0.27481 -0.0463911 0.9254 0.272498 -0.0584526 -21.61 0.276037 0.0383399 -1.59734 0.276045 0.0383404 92.2316 -47.2128 -97.9463 30.0769 -8.46754 0.749913 -4.77559 -26.4833 -39.3251 -7.09097 -0.888292 4.46195 -98.311 -49.2997 66.2139 -23.338 15.4157 1.99978 1.91002 12.4606 -29.3647 10.3726 0.862645 4.14844 10.4196 2.80547 -0.0582311 -8.52171 2.68907 2.50834 
-53.4058 97.3529 43.2513 -110.961 -84.07 -109.749 -169.33 3.77802 93.7823 -11.7662 7.57687 -3.30634 63.4183 2.0012 3.64036 27.776 -0.379877 -3.69707 173.053 1.39873 89.2428 -9.56374 -6.75035 -0.076019 63.739 -2.43131 -1.3624 28.0517 0.156049 -2.79541 0.142119 7.13905 -90.0129 12.5958 0.276206 -0.0580381 0.924913 0.273389 -0.0701476 -21.6105 0.280873 0.0276513 -1.59783 0.280879 0.0276515 92.3334 -47.2529 -97.776 29.8679 -8.53642 0.462921 -4.79556 -26.4169 -39.3428 -7.04452 -0.891228 4.53933 -98.2515 -49.3422 66.3158 -23.1875 15.4515 1.86335 1.79755 12.3081 -29.3492 10.5165 0.871844 4.13487 10.5845 2.80269 -0.151687 -8.65595 2.69579 2.6995 
-53.3985 97.3684 43.3012 -111 -84.1112 -109.769 -169.348 3.76359 93.7784 -11.7665 7.75574 -3.28616 63.4959 2.03473 3.62722 27.4288 -0.675342 -3.36417 173.054 1.34512 89.262 -9.54482 -6.67456 -0.0664881 63.4493 -2.32662 -1.30442 28.4818 0.181184 -2.92595 0.132724 7.138 -90.0205 12.5942 0.253882 -0.0705342 0.92328 0.250539 -0.0816363 -21.6121 0.263346 0.00902941 -1.59943 0.263349 0.00903793 92.2719 -47.2168 -97.8812 29.8636 -8.10937 0.371253 -5.31819 -27.0747 -39.2563 -6.6642 -0.929173 5.32279 -98.2404 -49.4182 66.3586 -23.091 15.4362 1.80962 1.76819 12.1997 -29.3426 10.1989 0.840437 4.06682 10.7773 2.86397 -0.0699102 -8.92933 2.73288 2.68805 
-53.4397 97.3799 43.295 -111.56 -84.1021 -110.4 -169.399 3.41363 93.7153 -11.3272 7.22076 -3.20723 63.7568 2.33405 2.86814 27.1443 -0.950286 -2.84101 173.003 1.49576 89.1995 -9.91978 -6.59178 -0.0500394 63.4455 -2.27511 -1.26766 28.8317 0.189112 -2.92903 0.130727 7.14423 -90.017 12.5878 0.251621 -0.0700436 0.916879 0.248598 -0.0815561 -21.6185 0.258979 0.012221 -1.60583 0.258978 0.0122206 92.2287 -47.0347 -97.9874 30.0616 -8.14391 0.546412 -5.37707 -26.903 -39.5019 -6.61863 -0.917338 5.20986 -98.2981 -49.4852 66.2971 -23.0954 15.3614 1.85356 1.7234 11.9961 -29.3521 10.3117 0.812878 3.74471 10.6453 2.91173 -0.147436 -8.75321 2.79506 2.84165 
-53.4757 97.4148 43.3249 -111.796 -84.1939 -110.708 -169.467 3.49262 93.6432 -11.3905 7.53549 -3.1751 63.2683 2.01175 3.28736 27.8509 -0.379301 -3.19295 173.015 1.5831 89.1713 -10.1198 -6.51852 -0.0992865 63.4403 -2.24023 -1.24172 28.8595 0.195369 -3.00326 0.132606 7.14929 -90.0167 12.5827 0.255529 -0.0627508 0.911793 0.252497 -0.0739148 -21.6236 0.262691 0.0167159 -1.61093 0.262689 0.016701 92.2938 -46.9772 -97.8951 30.1806 -8.01157 0.635779 -5.53451 -27.4793 -39.5465 -7.07403 -0.987097 5.72636 -98.4397 -49.5755 66.1214 -22.9803 15.4128 1.8645 1.76972 12.1784 -29.3257 10.3252 0.815603 3.76062 11.1418 3.71725 -0.445404 -9.28696 3.63239 2.88444 
-53.4665 97.3774 43.3321 -111.443 -83.9486 -110.277 -169.353 3.5199 93.7635 -11.5762 7.55027 -3.26918 63.3054 1.94404 3.58347 27.8293 -0.370038 -3.42467 173.06 1.45505 89.2403 -9.98427 -6.69027 -0.106991 63.4296 -2.26904 -1.26355 28.7666 0.187573 -2.91712 0.155699 7.14479 -90.0354 12.5843 0.292464 -0.104805 0.913322 0.287564 -0.117579 -21.6221 0.310432 -0.012061 -1.60945 0.310442 -0.0120527 92.3112 -47.071 -97.8486 29.941 -8.14656 0.565766 -5.12742 -27.4157 -39.4051 -7.38372 -0.996784 5.60254 -98.4145 -49.6064 66.1688 -23.0498 15.5332 2.01474 1.74928 12.2272 -29.3812 10.2275 0.820206 3.86547 10.654 6.60538 -2.49153 -8.26027 6.8594 4.76223 
-53.4636 97.3573 43.3999 -110.278 -83.8823 -109.089 -169.467 3.48585 93.693 -11.5733 6.95232 -3.1136 63.826 2.31918 3.04812 27.2593 -0.841394 -3.02747 173.065 1.34653 89.2503 -9.63068 -6.82421 -0.0969266 63.5579 -2.3663 -1.32731 28.538 0.176057 -2.82821 0.173225 7.13428 -90.0332 12.6055 0.328336 -0.104595 0.934612 0.323418 -0.118953 -21.6009 0.344584 -0.00107548 -1.58823 0.344588 -0.00107971 92.4518 -47.2336 -97.5914 29.9421 -8.12626 0.509565 -5.43268 -27.6838 -39.5468 -6.9899 -0.950446 5.26027 -98.1614 -49.2694 66.4226 -23.3454 15.4781 1.93903 1.99129 12.5419 -29.5085 10.2039 0.860192 4.24178 10.3337 10.5063 -5.86131 -8.41795 11.2573 7.89102 
-53.4705 97.3747 43.4373 -110.399 -84.0425 -109.283 -169.499 3.57072 93.6436 -11.5732 7.20474 -3.14251 63.3847 1.98461 3.43079 27.8321 -0.345998 -3.62655 173.011 1.40881 89.182 -9.76912 -6.75213 -0.0776395 63.6291 -2.36917 -1.32491 28.5822 0.189063 -3.00789 0.179174 7.13073 -90.0401 12.6127 0.336798 -0.119497 0.941754 0.331217 -0.134213 -21.5938 0.357139 -0.0127588 -1.5811 0.357145 -0.0127555 92.4318 -47.0104 -97.6675 30.0638 -8.21853 0.554624 -5.19393 -27.6307 -39.3729 -7.43345 -0.958328 4.99777 -98.1653 -49.2891 66.4242 -23.1674 15.4799 1.80411 2.0994 12.6069 -29.6329 9.78465 0.832326 4.27981 10.18 14.5986 -8.62086 -9.3646 15.6447 10.6139 
-53.4758 97.3788 43.4584 -110.43 -84.1356 -109.31 -169.501 3.51325 93.6381 -11.4577 7.37323 -3.13869 63.5503 2.12937 3.28285 27.5328 -0.616043 -3.20181 172.97 1.41259 89.1696 -9.73213 -6.7314 -0.029771 63.5604 -2.345 -1.31159 28.7332 0.19948 -3.11308 0.190407 7.12324 -90.0536 12.6277 0.352759 -0.148332 0.956749 0.345884 -0.163718 -21.5788 0.381023 -0.0354575 -1.56613 0.381026 -0.0354578 92.368 -46.9886 -97.7743 30.0065 -8.21434 0.525977 -5.07022 -27.5235 -39.2686 -7.43714 -0.963986 5.0115 -97.8194 -49.0769 66.859 -23.2589 15.7676 1.47578 1.96 12.5727 -29.6857 9.93914 0.839308 4.23903 9.64209 18.4485 -10.9516 -10.3661 19.6333 13.1405 
-53.4509 97.3651 43.4875 -110.37 -84.2988 -109.314 -169.454 3.62455 93.6135 -11.5177 7.5774 -3.24897 63.4351 2.0375 3.4348 27.6909 -0.490406 -3.26985 172.937 1.58137 89.0947 -10.0113 -6.59535 -0.034422 63.6862 -2.35173 -1.31097 28.6415 0.184113 -2.91155 0.207409 7.12839 -90.0618 12.6174 0.382575 -0.168191 0.94649 0.374802 -0.184876 -21.5891 0.415429 -0.0454373 -1.57645 0.415438 -0.0454346 92.523 -47.0906 -97.5064 29.7505 -8.20743 0.348716 -5.10923 -27.294 -39.49 -7.00886 -0.964472 5.48723 -97.7555 -48.9938 66.9247 -23.2117 15.7593 1.19903 1.92566 12.6055 -29.5237 9.87192 0.792488 3.84871 9.20519 21.4238 -12.4244 -11.3465 22.5838 15.116 
